/* XPM */
static char *_639081601174[] = {
/* columns rows colors chars-per-pixel */
"32 32 165 2 ",
"   c #618743",
".  c #5E8341",
"X  c #557C3D",
"o  c #5C8240",
"O  c #5F8542",
"+  c #567A3D",
"@  c #587E3E",
"#  c #597E3F",
"$  c #5C8241",
"%  c #577D3F",
"&  c #52783C",
"*  c #587E3F",
"=  c #557A3D",
"-  c #5A803F",
";  c #5F8642",
":  c #628844",
">  c #557B3D",
",  c #496F37",
"<  c #5C803F",
"1  c #55793D",
"2  c #53793C",
"3  c #608743",
"4  c #658B46",
"5  c #5A813F",
"6  c #5D8341",
"7  c #5F8543",
"8  c #628743",
"9  c #577C3E",
"0  c #648944",
"q  c #547A3C",
"w  c #547B3D",
"e  c #486E36",
"r  c #5C7F3F",
"t  c #567B3D",
"y  c #658A45",
"u  c #5E8441",
"i  c #638844",
"p  c #678D47",
"a  c #6C8F48",
"s  c #678C46",
"d  c #6B9048",
"f  c #587D3E",
"g  c #5B8140",
"h  c #608643",
"j  c #5B8040",
"k  c #618844",
"l  c #567D3E",
"z  c #55783C",
"x  c #55793C",
"c  c #5A803E",
"v  c #5E8541",
"b  c #5F8441",
"n  c #5C8140",
"m  c #577E3E",
"M  c #577D3E",
"N  c #4E733A",
"B  c #638944",
"V  c #5A8140",
"C  c #628945",
"Z  c #587D3F",
"A  c #557A3C",
"S  c #55763B",
"D  c #5B8240",
"F  c #51783B",
"G  c #4C7238",
"H  c #54773B",
"J  c #537339",
"K  c #5D8140",
"L  c #557B3C",
"P  c #547B3C",
"I  c #5C8340",
"U  c #597F3F",
"Y  c #648A45",
"T  c #6A9048",
"R  c #567C3D",
"E  c #557C3E",
"W  c #5D8342",
"Q  c #648A46",
"!  c #668C46",
"~  c #5E8442",
"^  c #648945",
"/  c #466C37",
"(  c #5F8643",
")  c #608543",
"_  c #50783B",
"`  c #577E3F",
"'  c #59803F",
"]  c #628744",
"[  c #4A7038",
"{  c #53743A",
"}  c #527339",
"|  c #52763B",
" . c #52793C",
".. c #466934",
"X. c #486A35",
"o. c #5D8241",
"O. c #5C8141",
"+. c #608642",
"@. c #658B45",
"#. c #598040",
"$. c #688E47",
"%. c #618642",
"&. c #6A8F47",
"*. c #698F48",
"=. c #698F47",
"-. c #5F8442",
";. c #5B8141",
":. c #537A3C",
">. c #50753A",
",. c #597D3E",
"<. c #51773B",
"1. c #547239",
"2. c #58783C",
"3. c #668E46",
"4. c #6D9149",
"5. c #618744",
"6. c #567C3E",
"7. c #5A8040",
"8. c #5C8341",
"9. c #4E7038",
"0. c #628944",
"q. c #5D8340",
"w. c #57773B",
"e. c #658C45",
"r. c #4F753B",
"t. c #577D3D",
"y. c #547A3D",
"u. c #638945",
"i. c #6E9249",
"p. c #6A8E47",
"a. c #5E8542",
"s. c #678E47",
"d. c #4F6E37",
"f. c #54783C",
"g. c #668B46",
"h. c #628843",
"j. c #547A3E",
"k. c #547C3D",
"l. c #4C6F37",
"z. c #52753A",
"x. c #57793C",
"c. c #5A8141",
"v. c #4B6F37",
"b. c #50773B",
"n. c #5E8241",
"m. c #567A3C",
"M. c #476A34",
"N. c #587C3E",
"B. c #658945",
"V. c #5A7D3E",
"C. c #4F743A",
"Z. c #5F8240",
"A. c #5F8341",
"S. c #618643",
"D. c #5D8441",
"F. c #4C7239",
"G. c #567B3E",
"H. c #56763B",
"J. c #587B3D",
"K. c #4B7138",
"L. c #5E8342",
"P. c #4E743A",
"I. c #56773C",
"U. c #4D7239",
"Y. c white",
/* pixels */
"  . X o O + @ # $ % & * = - ; @ : . > o O + @ # $ % & * = - ; @ ",
"$ , < 1 > 2 3 4 5 6 7 8 9 0 q w 6 e r 1 > 2 3 4 5 6 7 8 9 0 q w ",
"t ; y u i p a y 0 s 8 d 6 f 2 g t h y u i p a y 0 s 8 d 6 f 2 g ",
"j k l - z x c v b n > m M N M B V C l - z x c v b n > m M N M B ",
"o > Z A S # * D F G H 0 J K B L 6 > M A S # * D F G H 0 J K B P ",
"I U D Y a T - R E W O u p Q 7 ! ~ U D Y a T - R E W O u p Q 7 ! ",
"^ h / V 2 ( o u 6 ) R x D _ g % y ) / V 2 ( o u 6 ) R x D _ g ` ",
"n > o 6 Y ' ] 3 V [ { } |  ...X.o.> o 6 Y ' ] 3 V [ { } |  ...X.",
"O.* T O : $ +.7 ' @.#.U $.U %.&.$ ` *.O : $ +.7 ' @.#.U $.U %.=.",
"-.f ;.:.>.,.z <.1.2.3.4.5.u 2 6.) M ;.:.>.,.z <.1.2.3.4.5.u 2 > ",
"7.f ] X 8.9.0.q.w.#.` 5.e.~ 2 r.O.t.5.X 8.9.0.q.w.#.` 5.e.~ 2 r.",
"y.9 O k u.i.p.a.t.s.Y d.f.V =.  y.M O k u.i.p.a.t.s.Y d.f.V =.  ",
"o.g.s.h.  M j.x 7.k.l.z.} x.c.v.n s s.h.  M j.x 7.k.l.z.} x.c.v.",
"- M i u b.x n.m.M.7.h.N.B.V.C.Z.- f i u b.x n.m.M.7.h.N.B.V.C.Z.",
"Y   u l A.O S.* ( 3 m h.C ! : p Y 5.D.l A.O S.* ( 3 m h.C ! : p ",
"t.: 2 g 6 = F.G.H.J.' ; 7.K.5 ' t.i 2 g 6 = F.G.H.J.' ; 7.K.5 ' ",
"  L.X D O + @ # $ % & * = - ; @ : . > D O + @ # $ % & * = - ; @ ",
"$ , < 1 > 2 3 4 5 6 7 8 9 0 q w 6 e r 1 > 2 3 4 5 6 7 8 9 0 q w ",
"t ; y u i p a y 0 s 8 d 6 f 2 g t h y u i p a y 0 s 8 d 6 f 2 g ",
"j k l - z x c v b n > m M N M B V C l - z x c v b n > m M N M B ",
"o > Z A S # * D F G H 0 J K B L 6 > M A S # * D F G H 0 J K B P ",
"I U D Y a T - R E W O u p Q 7 ! ~ U D Y a T - R E W O u p Q 7 ! ",
"^ h / V 2 ( o u 6 ) R x D _ g % y ) / V 2 ( o u 6 ) R x D _ g ` ",
"n > o 6 Y ' ] 3 V [ { } |  ...X.o.> o 6 Y ' ] 3 V [ { } |  ...X.",
"O.* T O : $ +.7 ' @.#.U $.U %.&.$ ` *.O : $ +.7 ' @.#.U $.U %.=.",
"-.f ;.:.>.,.z <.1.2.3.4.5.u 2 6.) M ;.:.>.,.z <.1.2.3.4.5.u 2 > ",
"7.f ] X 8.9.0.q.w.#.` 5.e.~ 2 r.O.t.5.X 8.9.0.q.w.#.` 5.e.~ 2 r.",
"y.9 O k u.i.p.a.t.s.Y d.f.V =.  y.M O k u.i.p.a.t.s.Y d.f.V =.  ",
"o.g.s.h.  M j.x 7.k.l.z.} x.c.v.n s s.h.  M j.x 7.k.l.z.} x.c.v.",
"- M i u b.x n.m.M.7.h.N.B.V.C.Z.- f i u b.x n.m.M.7.h.N.B.V.C.Z.",
"y   u l b O   * ( 3 M h.C ! : p Y 5.D.l b O   * ( 3 M h.C ! : p ",
"@   :.$ ~ 6.P.f I.J.U ; 7.U.D - t.i 2 $ ~ 6.P.f I.J.U ; 7.U.D 7."
};
