/* XPM */
static char *_639070982461[] = {
/* columns rows colors chars-per-pixel */
"32 32 169 2 ",
"   c #587E3E",
".  c #5A8040",
"X  c #5B8240",
"o  c #4D7239",
"O  c #5F8642",
"+  c #597F3F",
"@  c #587B3D",
"#  c #56773C",
"$  c #587D3E",
"%  c #4E743A",
"&  c #567C3E",
"*  c #5E8442",
"=  c #5C8241",
"-  c #53793C",
";  c #638844",
":  c #577D3D",
">  c #5A803F",
",  c #537A3C",
"<  c #618743",
"1  c #658A45",
"2  c #678D47",
"3  c #628844",
"4  c #668C46",
"5  c #628945",
"6  c #628843",
"7  c #577D3E",
"8  c #608743",
"9  c #5F8643",
"0  c #587E3F",
"q  c #5F8542",
"w  c #5F8441",
"e  c #567D3E",
"r  c #5D8441",
"t  c #618744",
"y  c #648A45",
"u  c #5E8441",
"i  c #5F8240",
"p  c #4F743A",
"a  c #5A7D3E",
"s  c #658945",
"d  c #587C3E",
"f  c #476A34",
"g  c #567A3C",
"h  c #5E8241",
"j  c #55793C",
"k  c #50773B",
"l  c #5D8241",
"z  c #4B6F37",
"x  c #5A8141",
"c  c #57793C",
"v  c #527339",
"b  c #52753A",
"n  c #4C6F37",
"m  c #547C3D",
"M  c #547A3E",
"N  c #678E47",
"B  c #678C46",
"V  c #5C8140",
"C  c #668B46",
"Z  c #547A3D",
"A  c #698F47",
"S  c #5A8140",
"D  c #54783C",
"F  c #4F6E37",
"G  c #5E8542",
"H  c #6A8E47",
"J  c #265C42",
"K  c #618844",
"L  c #3E8948",
"P  c #6E9249",
"I  c #638945",
"U  c #577C3E",
"Y  c #4F753B",
"T  c #658C45",
"R  c #577E3F",
"E  c #598040",
"W  c #57773B",
"Q  c #5D8340",
"!  c #628944",
"~  c #4E7038",
"^  c #5C8341",
"/  c #557C3D",
"(  c #628744",
")  c #5F8442",
"_  c #557B3D",
"`  c #6D9149",
"'  c #668E46",
"]  c #A22633",
"[  c #E43B44",
"{  c #58783C",
"}  c #547239",
"|  c #51773B",
" . c #55783C",
".. c #597D3E",
"X. c #50753A",
"o. c #5B8141",
"O. c #5C8141",
"+. c #618642",
"@. c #688E47",
"#. c #658B45",
"$. c #59803F",
"%. c #5F8543",
"&. c #608642",
"*. c #6A9048",
"=. c #486A35",
"-. c #466934",
";. c #52793C",
":. c #52763B",
">. c #EAD4AA",
",. c #5D8341",
"<. c #5C8240",
"1. c #648945",
"2. c #5B8140",
"3. c #50783B",
"4. c #466C37",
"5. c #608643",
"6. c #5C8340",
"7. c #648A46",
"8. c #E4A672",
"9. c #567C3D",
"0. c #6C8F48",
"q. c #547B3C",
"w. c #638944",
"e. c #5D8140",
"r. c #F6757A",
"t. c #597E3F",
"y. c #55763B",
"u. c #557A3C",
"i. c #587D3F",
"p. c #5B8040",
"a. c #4E733A",
"s. c #5E8541",
"d. c #5A803E",
"f. c #567B3D",
"g. c #547B3D",
"h. c #547A3C",
"j. c #648944",
"k. c #658B46",
"l. c #55793D",
"z. c #5C803F",
"x. c #496F37",
"c. c #567A3D",
"v. c #5E8342",
"b. c #5A813F",
"n. c #4B7138",
"m. c #567B3E",
"M. c #4C7239",
"N. c #557A3D",
"B. c #618643",
"V. c #5F8341",
"C. c #53743A",
"Z. c #4A7038",
"A. c #608543",
"S. c #577D3F",
"D. c #5D8342",
"F. c #557C3E",
"G. c #537339",
"H. c #54773B",
"J. c #4C7238",
"K. c #51783B",
"L. c #557B3C",
"P. c #577E3E",
"I. c #6B9048",
"U. c #628743",
"Y. c #5C7F3F",
"T. c #486E36",
"R. c #52783C",
"E. c #5E8341",
"W. c white",
/* pixels */
"  . X o . O + @ # $ % & * = - ; : > X o . O + @ # $ % & * = , < ",
"1 2 3 4 5 6 7 8 9 0 < q w e r t y 2 3 4 5 6 7 8 9 0 < q w e u < ",
"> i p a s d 6 . f g h j k u ; $ > i p a s d 6 . f g h j k u ; 7 ",
"l z x c v b n m . j M 7 < 6 N B V z x c v b n m . j M 7 < 6 N C ",
"Z < A S D F y N : G H J J K q 7 L J A S D F y N : G H P I K q U ",
". Y - * T t R E W Q ! L J J t L J J - * T t R E W Q ! ~ ^ / ( $ ",
") _ - u t ` ' ] ] ] ] ] L J J J J [ [ [ [ [ ' { } |  ...X., o.$ ",
"O.A +.+ @.+ ] ] ] ] L L L L J J J J J [ [ [ [ #.$.%.&.= 3 q *.0 ",
"V =.-.;.:.] ] ] ] L L L L L L J J J J J [ >.[ [ S 8 ( $.y ,.<._ ",
"1.R 2.3.] ] ] ] ] ] ] ] ] ] L L J ] ] [ [ [ [ [ [ u <.9 - S 4.5.",
"6.4 %.7.] ] 8.] ] ] ] ] ] ] ] L L [ [ [ [ [ [ [ [ 9.> *.0.y X + ",
"<.q.w.e.] ] 8.] ] 8.] ] ] ] [ [ [ [ r.r.>.r.[ [ [ X 0 t.y.u.i._ ",
"p.w.7 a.] ] ] ] ] 8.] ] ] ] >.[ [ r.r.r.>.r.r.[ [ s.d.j  .> e K ",
"f.2.- $ ] ] ] ] ] ] ] ] [ ] >.[ [ >.r.r.r.r.r.>.[ 1 0.2 ; u 1 O ",
"= g.h.j.] ] ] ] ] ] ] ] [ ] [ [ [ >.r.r.r.r.r.>.[ k.8 - _ l.z.x.",
"<   O > ] ] ] 8.] ] ] ] ] ] [ ] [ r.r.r.>.r.r.[ [ t.  c.q X / v.",
": $.b.n.] ] ] ] ] ] ] ] ] ] [ [ [ [ r.r.r.r.[ [ [ m.M.N.,.2.- 3 ",
"y 2 3 4 ] ] ] ] ] ] ] ] ] [ ] [ [ [ [ [ [ [ [ [ [ 0 B.q V.e u < ",
"> i p a s ] ] ] ] 8.] ] ] [ ] [ [ ] [ [ >.[ [ [ f g h j k u ; 7 ",
"l z x c v b ] ] ] 8.] ] ] ] [ ] [ [ [ [ >.[ [ m . j M 7 < 6 N C ",
"Z < A S D F y ] ] ] ] ] [ ] [ ] [ [ [ [ [ [ y N : G H P I K q U ",
". Y - * T t R E ] ] ] ] ] ] [ [ [ [ [ [ [ t R E W Q ! ~ ^ / ( $ ",
") _ - u t ` ' { } ] ] ] ] ] [ >.[ [ [ [ t ` ' { } |  ...X., o.$ ",
"O.A +.+ @.+ E #.$.%.] ] 8.] [ >.[ [ [ + @.+ E #.$.%.&.= 3 q *.0 ",
"V =.-.;.:.v C.Z.S 8 ( ] ] ] [ [ [ [ -.;.:.v C.Z.S 8 ( $.y ,.<._ ",
"1.R 2.3.X j 9.A.,.u <.9 ] ] [ [ [ S.2.3.X j 9.A.,.u <.9 - S 4.5.",
"6.4 %.7.2 u q D.F.9.> *.0.y X + * 4 %.7.2 u q D.F.9.> *.0.y X + ",
"<.q.w.e.G.j.H.J.K.X 0 t.y.u.7 _ ,.L.w.e.G.j.H.J.K.X 0 t.y.u.i._ ",
"p.w.7 a.7 P._ V w s.d.j  .> e 5 S w.7 a.7 P._ V w s.d.j  .> e K ",
"f.2.- $ ,.I.U.B j.1 0.2 ; u 1 5.f.2.- $ ,.I.U.B j.1 0.2 ; u 1 O ",
"= g.h.j.U U.%.,.b.k.8 - _ l.Y.T.,.g.h.j.U U.%.,.b.k.8 - _ l.z.x.",
"<   O > N.0 R.S.= t.  c.q <._ E.3   O > N.0 R.S.= t.  c.q <./ E."
};
