/* XPM */
static char *_639081892408[] = {
/* columns rows colors chars-per-pixel */
"32 32 171 2 ",
"   c #618743",
".  c #5E8341",
"X  c #557C3D",
"o  c #5C8240",
"O  c #5F8542",
"+  c #567A3D",
"@  c #587E3E",
"#  c #597E3F",
"$  c #5C8241",
"%  c #577D3F",
"&  c #52783C",
"*  c #587E3F",
"=  c #557A3D",
"-  c #5A803F",
";  c #5F8642",
":  c #628844",
">  c #557B3D",
",  c #496F37",
"<  c #5C803F",
"1  c #55793D",
"2  c #53793C",
"3  c #608743",
"4  c #658B46",
"5  c #5A813F",
"6  c #5D8341",
"7  c #5F8543",
"8  c #628743",
"9  c #577C3E",
"0  c #648944",
"q  c #547A3C",
"w  c #547B3D",
"e  c #486E36",
"r  c #5C7F3F",
"t  c #567B3D",
"y  c #658A45",
"u  c #5E8441",
"i  c #638844",
"p  c #678D47",
"a  c #6C8F48",
"s  c #678C46",
"d  c #6B9048",
"f  c #587D3E",
"g  c #99502E",
"h  c #5B8140",
"j  c #5B8040",
"k  c #618844",
"l  c #567D3E",
"z  c #55783C",
"x  c #55793C",
"c  c #5A803E",
"v  c #5E8541",
"b  c #5F8441",
"n  c #5C8140",
"m  c #B38B4E",
"M  c #D4B079",
"N  c #577E3E",
"B  c #577D3E",
"V  c #4E733A",
"C  c #638944",
"Z  c #587D3F",
"A  c #557A3C",
"S  c #55763B",
"D  c #5B8240",
"F  c #51783B",
"G  c #4C7238",
"H  c #FFF8CA",
"J  c #EFE5A6",
"K  c #54773B",
"L  c #537339",
"P  c #5D8140",
"I  c #547B3C",
"U  c #5C8340",
"Y  c #597F3F",
"T  c #648A45",
"R  c #6A9048",
"E  c #567C3D",
"W  c #557C3E",
"Q  c #FFFCF7",
"!  c #5D8342",
"~  c #648A46",
"^  c #668C46",
"/  c #648945",
"(  c #608643",
")  c #466C37",
"_  c #5A8140",
"`  c #5F8643",
"'  c #50783B",
"]  c #577E3F",
"[  c #59803F",
"{  c #628744",
"}  c #527339",
"|  c #52763B",
" . c #52793C",
".. c #466934",
"X. c #486A35",
"o. c #5C8141",
"O. c #688E47",
"+. c #618642",
"@. c #698F47",
"#. c #5F8442",
"$. c #5B8141",
"%. c #537A3C",
"&. c #50753A",
"*. c #597D3E",
"=. c #181425",
"-. c #618744",
";. c #5A8040",
":. c #5C8341",
">. c #4E7038",
",. c #658C45",
"<. c #5E8442",
"1. c #4F753B",
"2. c #547A3D",
"3. c #638945",
"4. c #5D8241",
"5. c #668B46",
"6. c #678E47",
"7. c #628843",
"8. c #503B1C",
"9. c #FF0044",
"0. c #57793C",
"q. c #5A8141",
"w. c #4B6F37",
"e. c #50773B",
"r. c #5A7D3E",
"t. c #4F743A",
"y. c #5F8240",
"u. c #5F8341",
"i. c #577D3D",
"p. c #F8CF90",
"a. c #FFF1DD",
"s. c #4B7138",
"d. c #5E8342",
"f. c #583D1D",
"g. c #608543",
"h. c #4A7038",
"j. c #53743A",
"k. c #608642",
"l. c #658B45",
"z. c #598040",
"x. c #51773B",
"c. c #547239",
"v. c #58783C",
"b. c #668E46",
"n. c #6D9149",
"m. c #628944",
"M. c #5D8340",
"N. c #57773B",
"B. c #6E9249",
"V. c #6A8E47",
"C. c #5E8542",
"Z. c #4F6E37",
"A. c #54783C",
"S. c #547A3E",
"D. c #547C3D",
"F. c #B18C50",
"G. c #4C6F37",
"H. c #52753A",
"J. c #5E8241",
"K. c #567A3C",
"L. c #476A34",
"P. c #587C3E",
"I. c #658945",
"U. c #628945",
"Y. c #5D8441",
"T. c #567C3E",
"R. c #4E743A",
"E. c #56773C",
"W. c #587B3D",
"Q. c #4D7239",
"!. c black",
/* pixels */
"  . X o O + @ # $ % & * = - ; @ : . > o O + @ # $ % & * = - ; @ ",
"$ , < 1 > 2 3 4 5 6 7 8 9 0 q w 6 e r 1 > 2 3 4 5 6 7 8 9 0 q w ",
"t ; y u i p a y 0 s 8 d 6 f g g g g g g i p a y 0 s 8 d 6 f 2 h ",
"j k l - z x c v b n > g g g m m m M M M g g g v b n > N B V B C ",
"o > Z A S # * D F G g m m m M M M H H H J J J g F G K 0 L P C I ",
"U Y D T a R - E W g m M M M M M M H H H Q Q H J g ! O u p ~ 7 ^ ",
"/ ( ) _ 2 ` o u g m M M M M M M M H H H H Q Q H J g E x D ' h ] ",
"n > o 6 T [ { g m M M M M M M M M H H H H H Q Q H J g } |  ...X.",
"o.* R O : $ g m M M M M M M M M M H H H H H Q Q Q H J g O.Y +.@.",
"#.f $.%.&.*.g m M M M =.=.=.M M M H H H H =.=.=.Q H J g -.u 2 > ",
";.f { X :.>.g m M M =.=.=.=.=.M M H H H =.=.=.=.=.Q H g ,.<.2 1.",
"2.9 O k 3.g m M M M =.=.=.=.=.M M H H H =.=.=.=.=.Q H J g _ @.  ",
"4.5.6.7.  g m M M M =.8.9.8.=.M M H H H =.8.9.8.=.Q H J g 0.q.w.",
"- B i u e.g m M M M 8.8.9.8.8.M M H H H 8.8.9.8.8.Q H J g r.t.y.",
"T   u l u.g m M M M 8.8.8.8.8.M M H H H 8.8.8.8.8.H H J g ^ : p ",
"i.: 2 h 6 g m M M M p.8.8.8.p.M M H H H a.8.8.8.H H H J g s.5 [ ",
"  d.X D O g m M M M M p.p.p.M M M H H H H H H H H H H J g - ; @ ",
"$ , < 1 > 2 g m M M M M M M M M =.=.=.H H H H H H H m g 9 0 q w ",
"t ; y u i p f.m m M M M M M M =.=.=.=.=.H H H H H m m f.6 f 2 h ",
"j k l - z x f.m m m m M M M M =.p.Q =.=.H H H m m m m f.B V B C ",
"o > Z A S # * f.m m m m M M M p.M H Q Q H H m m m m f.0 L P C I ",
"U Y D T a R - E f.m m m M M M M M H H H H H m m m f.O u p ~ 7 ^ ",
"/ ( ) _ 2 ` o u 6 f.m m M M M M M H H H H H m m f.g.E x D ' h ] ",
"n > o 6 T [ { 3 _ h.f.m M M M M M H H H H H m f._ h.j.} |  ...X.",
"o.* R O : $ k.7 [ l.f.m =.=.M M =.=.H H =.=.m f.[ l.z.Y O.Y +.@.",
"#.f $.%.&.*.z x.c.v.f.m =.=.M M =.=.H H =.=.m f.c.v.b.n.-.u 2 > ",
";.f { X :.>.m.M.N.z.f.m 8.8.M M 8.8.H H 8.8.m f.N.z.] -.,.<.2 1.",
"2.9 O k 3.B.V.C.i.6.f.m 8.8.M M 8.8.H H 8.8.m f.i.6.T Z.A._ @.  ",
"4.5.6.7.  B S.x ;.D.f.m =.=.F.F.=.=.F.F.=.=.m f.;.D.G.H.} 0.q.w.",
"- B i u e.x J.K.L.;.7.f.f.f.f.f.f.f.f.f.f.f.f.K.L.;.7.P.I.r.t.y.",
"y   u l b O   * ` 3 B 7.U.^ : p T -.Y.l b O   * ` 3 B 7.U.^ : p ",
"@   %.$ <.T.R.f E.W.Y ; ;.Q.D - i.i 2 $ <.T.R.f E.W.Y ; ;.Q.D ;."
};
