/* XPM */
static char *_639082111632[] = {
/* columns rows colors chars-per-pixel */
"32 32 168 2 ",
"   c #618743",
".  c #5E8341",
"X  c #557C3D",
"o  c #5C8240",
"O  c #5F8542",
"+  c #567A3D",
"@  c #587E3E",
"#  c #597E3F",
"$  c #5C8241",
"%  c #577D3F",
"&  c #52783C",
"*  c #2B3B18",
"=  c #53732C",
"-  c #628844",
";  c #557B3D",
":  c #303138",
">  c #41424A",
",  c #557A3D",
"<  c #5A803F",
"1  c #5F8642",
"2  c #496F37",
"3  c #5C803F",
"4  c #55793D",
"5  c #53793C",
"6  c #608743",
"7  c #658B46",
"8  c #5A813F",
"9  c #5D8341",
"0  c #5F8543",
"q  c #628743",
"w  c #5C7F3F",
"e  c #577C3E",
"r  c #648944",
"t  c #547A3C",
"y  c #547B3D",
"u  c #567B3D",
"i  c #658A45",
"p  c #5E8441",
"a  c #638844",
"s  c #678D47",
"d  c #6C8F48",
"f  c #678C46",
"g  c #6B9048",
"h  c #587D3E",
"j  c #5B8140",
"k  c #5B8040",
"l  c #618844",
"z  c #567D3E",
"x  c #55783C",
"c  c #55793C",
"v  c #5A803E",
"b  c #5E8541",
"n  c #5F8441",
"m  c #5C8140",
"M  c #577E3E",
"N  c #577D3E",
"B  c #4E733A",
"V  c #638944",
"C  c #587D3F",
"Z  c #557A3C",
"A  c #55763B",
"S  c #587E3F",
"D  c #5B8240",
"F  c #51783B",
"G  c #4C7238",
"H  c #54773B",
"J  c #537339",
"K  c #5D8140",
"L  c #ECFF00",
"P  c #547B3C",
"I  c #5C8340",
"U  c #597F3F",
"Y  c #648A45",
"T  c #6A9048",
"R  c #567C3D",
"E  c #557C3E",
"W  c #5D8342",
"Q  c #648A46",
"!  c #668C46",
"~  c #648945",
"^  c #608643",
"/  c #466C37",
"(  c #5A8140",
")  c #5F8643",
"_  c #608543",
"`  c #50783B",
"'  c #577E3F",
"]  c #59803F",
"[  c #628744",
"{  c #4A7038",
"}  c #53743A",
"|  c #527339",
" . c #52763B",
".. c #884931",
"X. c #1D290E",
"o. c #52793C",
"O. c #466934",
"+. c #486A35",
"@. c #5C8141",
"#. c #608642",
"$. c #6A331E",
"%. c #C9DBB4",
"&. c #658B45",
"*. c #598040",
"=. c #688E47",
"-. c #618642",
";. c #698F47",
":. c #5F8442",
">. c #5B8141",
",. c #537A3C",
"<. c #50753A",
"1. c #597D3E",
"2. c #58783C",
"3. c #668E46",
"4. c #6D9149",
"5. c #618744",
"6. c #5A8040",
"7. c #5C8341",
"8. c #4E7038",
"9. c #658C45",
"0. c #5E8442",
"q. c #4F753B",
"w. c #547A3D",
"e. c #638945",
"r. c #BBC29C",
"t. c #678E47",
"y. c #4F6E37",
"u. c #54783C",
"i. c #3F1C0E",
"p. c #628843",
"a. c #919970",
"s. c #547C3D",
"d. c #4C6F37",
"f. c #52753A",
"g. c #57793C",
"h. c #5A8141",
"j. c #4B6F37",
"k. c #567A3C",
"l. c #476A34",
"z. c #587C3E",
"x. c #658945",
"c. c #5A7D3E",
"v. c #4F743A",
"b. c #5F8240",
"n. c #618643",
"m. c #628945",
"M. c #577D3D",
"N. c #4C7239",
"B. c #567B3E",
"V. c #56763B",
"C. c #587B3D",
"Z. c #4B7138",
"A. c #5E8342",
"S. c gray83",
"D. c #28292D",
"F. c #908C8C",
"G. c #6A8F47",
"H. c #698F48",
"J. c #567C3E",
"K. c #628944",
"L. c #6E9249",
"P. c #5D8241",
"I. c #668B46",
"U. c #50773B",
"Y. c #5D8441",
"T. c #56773C",
"R. c #4D7239",
"E. c black",
/* pixels */
"  . X o O + @ # $ % & * * = = = - . ; o : : > # $ % & = , < 1 @ ",
"$ 2 3 4 ; 5 6 7 8 9 0 q * * * = = = w 4 = : : = 8 9 0 = e r t y ",
"u 1 i p a s d i r f q g 9 * * * = = * = = = = = = f = * 9 h 5 j ",
"k l z < x c v b n m ; M N B * * * = = * = = = = = * = * N B N V ",
"o ; C Z A # S D F G H r J K V * * * = * L L * = L = * * J K V P ",
"I U D Y d T < R E W O p s Q 0 ! * * * * L L * * L * * p s Q 0 ! ",
"~ ^ / ( 5 ) o p 9 _ R c D ` j % i * * * * = = * * * * c D ` j ' ",
"m ; o 9 Y ] [ 6 ( { } |  .........* X.* * * = = = * } |  .o.O.+.",
"@.S T O - $ #.0 ] = = = = = * ..$.* X.%.X.* * = = &.*.U =.U -.;.",
":.h >.,.<.1.x = = = * * * * * ....$.* X.X.* * * = 2.3.4.5.p 5 ; ",
"6.h [ X 7.8.= = * * * * * * * $.....* * %.X.* * * *.' 5.9.0.5 q.",
"w.e O l e.r.= * * t.Y y.u.$.$.......$.* * X.%.X.* t.Y y.u.( ;.  ",
"i.i.t.p.r.r.a.* 6.s.d.f.| $.........$.$.* > > * * = d.f.| g.h.j.",
"i.i.i.r.r.a.a.k.l.6.p.z.x.c...........$.$.> : $.* * = z.x.c.v.b.",
"Y = = = a.O n.S ) 6 M p.m.! ......$.$.$.$.: $.$.) * * = m.! - s ",
"M.* = = = * N.B.V.C.] 1 6.Z.8 $.$.$.$.$.$.$.$.B.V.C.* * = = = ] ",
"  A.* * * * @ # $ % & S , < > i.i.i.i.i.i.i.@ # $ % & S * * * = ",
"$ 2 * * i.S.6 7 8 9 0 q > > > D.$.$.$.$.$.$.> 7 8 9 0 q e = = * ",
"u 1 i i.F.S.d i r f > > > > > D.........$.$.> > > f q g 9 = * j ",
"k l z S.F.F.S.b n m > > > D.D.D.......$.$.D.> > > > ; M N * N V ",
"o ; C Z S.F.S.D F > > > > D.D.D.D...$.$.$.D.> > > > > r J K V P ",
"I U D Y d S.F.S.E > > > D.D.D.D.D...$.$.D.D.D.> > > > > s Q 0 ! ",
"~ ^ / ( 5 ) S.F.F.> > D.D.D.D.D.D.$.$.$.D.D.D.> > > > > > ` j ' ",
"m ; o 9 Y ] [ S.F.S.D.D.D.D.D.D...$.$.9 Y ] D.D.D.> > D.D.o.O.+.",
"@.S T O - $ #.0 S.F.F.S.D.D.D.G.$.$.H.O - $ #.D.D.> D.D.D.U -.;.",
":.h >.,.<.1.x ....$.D.F.S.D.5 J.$.N >.,.<.1.$.$.$...$.$.$.p 5 ; ",
"6.h [ X 7.8.K.....$.$.D.D.0.5 q.@.M.5.X 7.8.$.$.....$.$.9.0.5 q.",
"w.e O l e.L.......$.$.y.u.( ;.  w.N O l e.........$.Y y.u.( ;.  ",
"P.I.t.p.  N ....$.$.$.f.| g.h.j.m f t.p.  ......$.s.d.f.| g.h.j.",
"< N a p U.c ....$.$.p.z.x.c.v.b.< h a p U.....$.l.6.p.z.x.c.v.b.",
"i   p z n ....$.$.6 N p.m.! - s Y 5.Y.z n ..$.$.$.6 N p.m.! - s ",
"@   ,.......$.$.T.C.U 1 6.R.D < M.a 5 $ 0.$.$.$.$.$.U 1 6.R.D 6."
};
