/* XPM */
static char *_639138783355[] = {
/* columns rows colors chars-per-pixel */
"32 32 167 2 ",
"   c #618743",
".  c #5E8341",
"X  c #557C3D",
"o  c #5C8240",
"O  c #5F8542",
"+  c #567A3D",
"@  c #587E3E",
"#  c #597E3F",
"$  c #5C8241",
"%  c #577D3F",
"&  c #52783C",
"*  c #2B3B18",
"=  c #53732C",
"-  c #5A803F",
";  c #5F8642",
":  c #628844",
">  c #557B3D",
",  c #303138",
"<  c #41424A",
"1  c #587E3F",
"2  c #557A3D",
"3  c #496F37",
"4  c #5C803F",
"5  c #55793D",
"6  c #53793C",
"7  c #608743",
"8  c #658B46",
"9  c #5A813F",
"0  c #5D8341",
"q  c #5F8543",
"w  c #486E36",
"e  c #5C7F3F",
"r  c #577C3E",
"t  c #648944",
"y  c #547A3C",
"u  c #547B3D",
"i  c #567B3D",
"p  c #658A45",
"a  c #5E8441",
"s  c #638844",
"d  c #678D47",
"f  c #6C8F48",
"g  c #678C46",
"h  c #628743",
"j  c #6B9048",
"k  c #587D3E",
"l  c #5B8140",
"z  c #5B8040",
"x  c #618844",
"c  c #567D3E",
"v  c #55783C",
"b  c #55793C",
"n  c #5A803E",
"m  c #5E8541",
"M  c #5F8441",
"N  c #5C8140",
"B  c #577E3E",
"V  c #577D3E",
"C  c #4E733A",
"Z  c #638944",
"A  c #587D3F",
"S  c #557A3C",
"D  c #55763B",
"F  c #5B8240",
"G  c #51783B",
"H  c #4C7238",
"J  c #54773B",
"K  c #537339",
"L  c #5D8140",
"P  c #547B3C",
"I  c #5C8340",
"U  c #597F3F",
"Y  c #648A45",
"T  c #6A9048",
"R  c #567C3D",
"E  c #557C3E",
"W  c #5D8342",
"Q  c #648A46",
"!  c #ECFF00",
"~  c #668C46",
"^  c #648945",
"/  c #608643",
"(  c #466C37",
")  c #5A8140",
"_  c #5F8643",
"`  c #608543",
"'  c #50783B",
"]  c #577E3F",
"[  c #59803F",
"{  c #628744",
"}  c #4A7038",
"|  c #53743A",
" . c #527339",
".. c #52763B",
"X. c #52793C",
"o. c #466934",
"O. c #486A35",
"+. c #5D8241",
"@. c #5C8141",
"#. c #608642",
"$. c #658B45",
"%. c #598040",
"&. c #688E47",
"*. c #884931",
"=. c #1D290E",
"-. c #618642",
";. c #698F47",
":. c #5F8442",
">. c #5B8141",
",. c #537A3C",
"<. c #50753A",
"1. c #597D3E",
"2. c #51773B",
"3. c #547239",
"4. c #6A331E",
"5. c #C9DBB4",
"6. c #58783C",
"7. c #668E46",
"8. c #6D9149",
"9. c #618744",
"0. c #5A8040",
"q. c #5C8341",
"w. c #4E7038",
"e. c #628944",
"r. c #658C45",
"t. c #5E8442",
"y. c #4F753B",
"u. c #547A3D",
"i. c #638945",
"p. c #6E9249",
"a. c #678E47",
"s. c #4F6E37",
"d. c #54783C",
"f. c #668B46",
"g. c #628843",
"h. c #BBC29C",
"j. c #547C3D",
"k. c #4C6F37",
"l. c #52753A",
"z. c #57793C",
"x. c #5A8141",
"c. c #4B6F37",
"v. c #3F1C0E",
"b. c #919970",
"n. c #476A34",
"m. c #587C3E",
"M. c #658945",
"N. c #5A7D3E",
"B. c #4F743A",
"V. c #5F8240",
"C. c #628945",
"Z. c #577D3D",
"A. c #4C7239",
"S. c #567B3E",
"D. c #56763B",
"F. c #587B3D",
"G. c #4B7138",
"H. c #28292D",
"J. c gray83",
"K. c #908C8C",
"L. c #698F48",
"P. c #567C3E",
"I. c #6A8E47",
"U. c #50773B",
"Y. c #5D8441",
"T. c #4D7239",
"R. c black",
/* pixels */
"  . X o O + @ # $ % & * = - ; @ : . > o , < @ # $ % & 1 2 - ; @ ",
"$ 3 4 5 > 6 7 8 9 0 q * * = = = 0 w e 5 , , < 8 9 0 q = r t y u ",
"i ; p a s d f p t g h j * * * = = = p a = , , = t g h = 0 k 6 l ",
"z x c - v b n m M N > B V * * * = = * = = = = = = N = * V C V Z ",
"o > A S D # 1 F G H J t K L * * * = = * = = = = = * = * K L Z P ",
"I U F Y f T - R E W O a d Q q * * * = * ! ! * = ! = * * d Q q ~ ",
"^ / ( ) 6 _ o a 0 ` R b F ' l % * * * * ! ! * * ! * * b F ' l ] ",
"N > o 0 Y [ { 7 ) } |  ...X.o.O.+.* * * * = = * * * *  ...X.o.O.",
"@.1 T O : $ #.q [ $.%.U &.*.*.*.*.* =.* * * = = = * %.U &.U -.;.",
":.k >.,.<.1.v 2.3.= = = = = * *.4.* =.5.=.* * = = 6.7.8.9.a 6 > ",
"0.k { X q.w.e.= = = * * * * * *.*.4.* =.=.* * * = %.] 9.r.t.6 y.",
"u.r O x i.p.= = * * * * * * * 4.*.*.* * 5.=.* * * a.Y s.d.) ;.  ",
"+.f.a.g.  h.= * * j.k.l. .4.4.*.*.*.4.* * =.5.=.* j.k.l. .z.x.c.",
"v.v.s a h.h.b.* n.0.g.m.M.4.*.*.*.*.4.4.* < < * * = g.m.M.N.B.V.",
"v.v.v.h.h.b.b.1 _ 7 B g.C.~ *.*.*.*.*.4.4.< , 4.* * = g.C.~ : d ",
"Z.= = = b.2 A.S.D.F.[ ; 0.G.*.*.*.4.4.4.4., 4.4.D.* * = 0.G.9 [ ",
"  * = = = * @ # $ % & 1 2 - ; 4.4.4.4.4.4.4.4.# $ % * * = = = @ ",
"$ 3 * * * * 7 8 9 0 q h r t < H.v.v.v.v.v.v.7 8 9 0 q h * * * = ",
"i ; * * v.J.f p t g h j < < < H.4.4.4.4.4.4.< p t g h j 0 = = * ",
"z x c v.K.J.n m M N > < < < < H.*.*.*.*.4.4.< < < N > B V = * Z ",
"o > A J.K.K.J.F G H < < < < H.H.H.*.*.*.4.4.< < < < < t K * Z P ",
"I U F Y J.K.J.R E < < < < H.H.H.H.H.*.*.4.4.< < < < < < d Q q ~ ",
"^ / ( ) 6 J.K.J.0 < < < < H.H.H.H.` *.4.4.4.H.< < < < < < ' l ] ",
"N > o 0 Y [ J.K.K.< < < H.H.H.H.H.> 4.4.4.H.H.< < < < H.H.X.o.O.",
"@.1 T O : $ #.J.K.J.H.H.H.H.H.H.$ ] L.4.4.$ H.H.H.< H.H.H.U -.;.",
":.k >.,.<.1.v 2.J.K.K.J.H.H.H.P.` V >.4.<.1.4.4.4.*.4.4.4.a 6 > ",
"0.k { X q.w.e.*.*.4.4.K.J.H.6 y.@.Z.9.4.q.w.4.4.*.*.4.4.4.t.6 y.",
"u.r O x i.p.I.*.*.4.4.4.4.) ;.  u.V O x i.p.4.4.*.*.4.s.d.) ;.  ",
"+.f.a.g.  V *.*.4.4.4.4. .z.x.c.N g a.g.  *.*.*.*.4.k.l. .z.x.c.",
"- V s a U.b *.*.4.4.4.m.M.N.B.V.- k s a U.*.*.*.4.0.g.m.M.N.B.V.",
"p   a c M *.*.4.4.4.V g.C.~ : d Y 9.Y.c M *.4.4.4.7 V g.C.~ : d ",
"@   ,.*.*.*.4.4.4.F.U ; 0.T.F - Z.s 6 $ t.4.4.4.4.4.U ; 0.T.F 0."
};
