/* XPM */
static char *_639138789779[] = {
/* columns rows colors chars-per-pixel */
"32 32 167 2 ",
"   c #618743",
".  c #5E8341",
"X  c #557C3D",
"o  c #5C8240",
"O  c #5F8542",
"+  c #567A3D",
"@  c #587E3E",
"#  c #597E3F",
"$  c #5C8241",
"%  c #577D3F",
"&  c #52783C",
"*  c #587E3F",
"=  c #557A3D",
"-  c #5A803F",
";  c #5F8642",
":  c #628844",
">  c #557B3D",
",  c #41424A",
"<  c #496F37",
"1  c #5C803F",
"2  c #55793D",
"3  c #53793C",
"4  c #608743",
"5  c #658B46",
"6  c #5A813F",
"7  c #5D8341",
"8  c #5F8543",
"9  c #2B3B18",
"0  c #53732C",
"q  c #648944",
"w  c #547A3C",
"e  c #547B3D",
"r  c #486E36",
"t  c #5C7F3F",
"y  c #303138",
"u  c #628743",
"i  c #577C3E",
"p  c #567B3D",
"a  c #658A45",
"s  c #5E8441",
"d  c #638844",
"f  c #678D47",
"g  c #6C8F48",
"h  c #678C46",
"j  c #608643",
"k  c #587D3E",
"l  c #5B8140",
"z  c #5B8040",
"x  c #618844",
"c  c #567D3E",
"v  c #55783C",
"b  c #55793C",
"n  c #5A803E",
"m  c #5E8541",
"M  c #5F8441",
"N  c #5C8140",
"B  c #577E3E",
"V  c #577D3E",
"C  c #4E733A",
"Z  c #638944",
"A  c #587D3F",
"S  c #557A3C",
"D  c #55763B",
"F  c #5B8240",
"G  c #51783B",
"H  c #4C7238",
"J  c #54773B",
"K  c #537339",
"L  c #5D8140",
"P  c #547B3C",
"I  c #5C8340",
"U  c #597F3F",
"Y  c #648A45",
"T  c #6A9048",
"R  c #567C3D",
"E  c #557C3E",
"W  c #5D8342",
"Q  c #648A46",
"!  c #668C46",
"~  c #648945",
"^  c #466C37",
"/  c #5A8140",
"(  c #5F8643",
")  c #608543",
"_  c #50783B",
"`  c #ECFF00",
"'  c #577E3F",
"]  c #59803F",
"[  c #628744",
"{  c #4A7038",
"}  c #53743A",
"|  c #527339",
" . c #52763B",
".. c #52793C",
"X. c #466934",
"o. c #486A35",
"O. c #5C8141",
"+. c #608642",
"@. c #658B45",
"#. c #598040",
"$. c #688E47",
"%. c #618642",
"&. c #6A8F47",
"*. c #698F47",
"=. c #5F8442",
"-. c #5B8141",
";. c #537A3C",
":. c #50753A",
">. c #597D3E",
",. c #51773B",
"<. c #547239",
"1. c #58783C",
"2. c #668E46",
"3. c #6D9149",
"4. c #618744",
"5. c #884931",
"6. c #1D290E",
"7. c #5A8040",
"8. c #5C8341",
"9. c #4E7038",
"0. c #628944",
"q. c #5D8340",
"w. c #57773B",
"e. c #6A331E",
"r. c #C9DBB4",
"t. c #658C45",
"y. c #5E8442",
"u. c #4F753B",
"i. c #547A3D",
"p. c #638945",
"a. c #6E9249",
"s. c #6A8E47",
"d. c #678E47",
"f. c #4F6E37",
"g. c #54783C",
"h. c #5D8241",
"j. c #668B46",
"k. c #628843",
"l. c #547C3D",
"z. c #4C6F37",
"x. c #52753A",
"c. c #57793C",
"v. c #5A8141",
"b. c #4B6F37",
"n. c #50773B",
"m. c #BBC29C",
"M. c #587C3E",
"N. c #658945",
"B. c #5A7D3E",
"V. c #4F743A",
"C. c #5F8240",
"Z. c #3F1C0E",
"A. c #919970",
"S. c #628945",
"D. c #567B3E",
"F. c #56763B",
"G. c #587B3D",
"H. c #4B7138",
"J. c #28292D",
"K. c #6B9048",
"L. c gray83",
"P. c #908C8C",
"I. c #577D3D",
"U. c #547A3E",
"Y. c #5D8441",
"T. c #4D7239",
"R. c black",
/* pixels */
"  . X o O + @ # $ % & * = - ; @ : . > o , , @ # $ % & * = - ; @ ",
"$ < 1 2 > 3 4 5 6 7 8 9 0 q w e 7 r t 2 y , 4 5 6 7 8 u i q w e ",
"p ; a s d f g a q h u 9 9 0 0 0 p j a s y y , a q h u 0 7 k 3 l ",
"z x c - v b n m M N > B 9 9 9 0 0 0 c - 0 y y 0 M N > 0 V C V Z ",
"o > A S D # * F G H J q K 9 9 9 0 0 9 0 0 0 0 0 0 H 0 9 K L Z P ",
"I U F Y g T - R E W O s f Q 9 9 9 0 0 9 0 0 0 0 0 9 0 9 f Q 8 ! ",
"~ j ^ / 3 ( o s 7 ) R b F _ l 9 9 9 0 9 ` ` 9 0 ` 0 9 9 F _ l ' ",
"N > o 7 Y ] [ 4 / { } |  ...X.o.9 9 9 9 ` ` 9 9 ` 9 9 |  ...X.o.",
"O.* T O : $ +.8 ] @.#.U $.U %.&.$ 9 9 9 9 0 0 9 9 9 9 U $.U %.*.",
"=.k -.;.:.>.v ,.<.1.2.3.4.5.5.5.5.9 6.9 9 9 0 0 0 9 2.3.4.s 3 > ",
"7.k [ X 8.9.0.q.w.0 0 0 0 0 9 5.e.9 6.r.6.9 9 0 0 #.' 4.t.y.3 u.",
"i.i O x p.a.s.0 0 0 9 9 9 9 9 5.5.e.9 6.6.9 9 9 0 d.Y f.g./ *.  ",
"h.j.d.k.  V 0 0 9 9 9 9 9 9 9 e.5.5.9 9 r.6.9 9 9 l.z.x.| c.v.b.",
"- V d s n.m.0 9 9 7.k.M.N.e.e.5.5.5.e.9 9 6.r.6.9 7.k.M.N.B.V.C.",
"Z.Z.s c m.m.A.9 ( 4 B k.S.e.5.5.5.5.e.e.9 , , 9 9 0 B k.S.! : f ",
"Z.Z.Z.m.m.A.A.D.F.G.] ; 7.H.5.5.5.5.5.e.e., y e.9 9 0 ; 7.H.6 ] ",
"  0 0 0 A.+ @ # $ % & * = - 5.5.5.e.e.e.e.y e.e.$ 9 9 0 = - ; @ ",
"$ 9 0 0 0 9 4 5 6 7 8 u i q w J.e.e.e.e.e.e.e.5 6 7 9 9 0 0 0 e ",
"p ; 9 9 9 9 g a q h u K.7 , , J.Z.Z.Z.Z.Z.Z.g a q h u K.9 9 9 0 ",
"z x 9 9 Z.L.n m M N > B , , , J.e.e.e.e.e.e., m M N > B V 0 0 9 ",
"o > A Z.P.L.* F G H J , , , J.J.J.5.5.5.e.J., , G H J q K 0 9 P ",
"I U F L.P.P.L.R E W O , , J.J.J.J.5.5.5.e.J., , , , O s f 9 8 ! ",
"~ j ^ / L.P.L.s 7 ) , , , J.J.J.J.5.5.5.e.J.J., , , , b F _ l ' ",
"N > o 7 Y L.P.L./ , , , J.J.J.J.J.5.e.e.e.J.J., , , , , , ..X.o.",
"O.* T O : $ L.P.P.J.J.J.J.J.J.J.J.' e.e.e.e.J.J.J., J.J.J.U %.*.",
"=.k -.;.:.>.v L.P.L.J.J.J.J.J.J.) V -.e.e.e.e.e.e.5.e.e.e.s 3 > ",
"7.k [ X 8.9.0.q.L.P.P.L.J.J.J.u.O.I.4.e.e.e.e.e.5.5.5.e.e.y.3 u.",
"i.i O x p.a.s.5.5.e.e.P.L.J.*.  i.V O x e.e.e.e.5.5.e.e.g./ *.  ",
"h.j.d.k.  V U.5.e.e.e.e.e.c.v.b.N h d.k.  V 5.5.5.e.e.e.| c.v.b.",
"- V d s n.b 5.5.e.e.e.e.N.B.V.C.- k d s n.5.5.5.e.e.k.M.N.B.V.C.",
"a   s c M 5.5.e.e.e.e.k.S.! : f Y 4.Y.c M 5.e.e.e.4 V k.S.! : f ",
"@   ;.5.5.5.e.e.e.e.U ; 7.T.F - I.d 3 $ y.e.e.e.e.e.U ; 7.T.F 7."
};
