/* XPM */
static char *_639138793673[] = {
/* columns rows colors chars-per-pixel */
"32 32 165 2 ",
"   c #618743",
".  c #5E8341",
"X  c #557C3D",
"o  c #5C8240",
"O  c #5F8542",
"+  c #567A3D",
"@  c #587E3E",
"#  c #597E3F",
"$  c #5C8241",
"%  c #577D3F",
"&  c #52783C",
"*  c #587E3F",
"=  c #557A3D",
"-  c #5A803F",
";  c #5F8642",
":  c #628844",
">  c #557B3D",
",  c #496F37",
"<  c #5C803F",
"1  c #55793D",
"2  c #53793C",
"3  c #608743",
"4  c #658B46",
"5  c #5A813F",
"6  c #5D8341",
"7  c #5F8543",
"8  c #2B3B18",
"9  c #53732C",
"0  c #648944",
"q  c #547A3C",
"w  c #547B3D",
"e  c #486E36",
"r  c #5C7F3F",
"t  c #41424A",
"y  c #628743",
"u  c #577C3E",
"i  c #567B3D",
"p  c #658A45",
"a  c #5E8441",
"s  c #638844",
"d  c #678D47",
"f  c #6C8F48",
"g  c #678C46",
"h  c #608643",
"j  c #303138",
"k  c #587D3E",
"l  c #5B8140",
"z  c #5B8040",
"x  c #618844",
"c  c #567D3E",
"v  c #55783C",
"b  c #55793C",
"n  c #5A803E",
"m  c #5E8541",
"M  c #5F8441",
"N  c #5C8140",
"B  c #577E3E",
"V  c #577D3E",
"C  c #4E733A",
"Z  c #638944",
"A  c #587D3F",
"S  c #557A3C",
"D  c #55763B",
"F  c #5B8240",
"G  c #51783B",
"H  c #4C7238",
"J  c #54773B",
"K  c #537339",
"L  c #5D8140",
"P  c #547B3C",
"I  c #5C8340",
"U  c #597F3F",
"Y  c #648A45",
"T  c #6A9048",
"R  c #567C3D",
"E  c #557C3E",
"W  c #5D8342",
"Q  c #648A46",
"!  c #668C46",
"~  c #648945",
"^  c #466C37",
"/  c #5A8140",
"(  c #5F8643",
")  c #608543",
"_  c #50783B",
"`  c #ECFF00",
"'  c #577E3F",
"]  c #59803F",
"[  c #628744",
"{  c #4A7038",
"}  c #53743A",
"|  c #527339",
" . c #52763B",
".. c #52793C",
"X. c #466934",
"o. c #486A35",
"O. c #5C8141",
"+. c #608642",
"@. c #658B45",
"#. c #598040",
"$. c #688E47",
"%. c #884931",
"&. c #618642",
"*. c #698F47",
"=. c #5F8442",
"-. c #5B8141",
";. c #537A3C",
":. c #50753A",
">. c #597D3E",
",. c #51773B",
"<. c #547239",
"1. c #6A331E",
"2. c #1D290E",
"3. c #668E46",
"4. c #6D9149",
"5. c #618744",
"6. c #5A8040",
"7. c #5C8341",
"8. c #4E7038",
"9. c #628944",
"0. c #C9DBB4",
"q. c #658C45",
"w. c #5E8442",
"e. c #4F753B",
"r. c #547A3D",
"t. c #638945",
"y. c #6E9249",
"u. c #678E47",
"i. c #4F6E37",
"p. c #54783C",
"a. c #5D8241",
"s. c #668B46",
"d. c #628843",
"f. c #BBC29C",
"g. c #547C3D",
"h. c #4C6F37",
"j. c #52753A",
"k. c #57793C",
"l. c #5A8141",
"z. c #4B6F37",
"x. c #3F1C0E",
"c. c #919970",
"v. c #476A34",
"b. c #587C3E",
"n. c #658945",
"m. c #5A7D3E",
"M. c #4F743A",
"N. c #5F8240",
"B. c #628945",
"V. c #577D3D",
"C. c #4C7239",
"Z. c #567B3E",
"A. c #56763B",
"S. c #587B3D",
"D. c #4B7138",
"F. c #28292D",
"G. c gray83",
"H. c #6B9048",
"J. c #908C8C",
"K. c #567C3E",
"L. c #6A8E47",
"P. c #50773B",
"I. c #5D8441",
"U. c #4D7239",
"Y. c black",
/* pixels */
"  . X o O + @ # $ % & * = - ; @ : . > o O + @ # $ % & * = - ; @ ",
"$ , < 1 > 2 3 4 5 6 7 8 9 0 q w 6 e r 1 t t 3 4 5 6 7 y u 0 q w ",
"i ; p a s d f p 0 g y 8 8 9 9 9 i h p j j j t p 0 g y 9 6 k 2 l ",
"z x c - v b n m M N > B 8 8 8 9 9 9 c - 9 j j 9 M N > 9 V C V Z ",
"o > A S D # * F G H J 0 K 8 8 8 9 9 8 9 9 9 9 9 9 H 9 8 K L Z P ",
"I U F Y f T - R E W O a d Q 8 8 8 9 9 8 9 9 9 9 9 8 9 8 d Q 7 ! ",
"~ h ^ / 2 ( o a 6 ) R b F _ l 8 8 8 9 8 ` ` 8 9 ` 9 8 8 F _ l ' ",
"N > o 6 Y ] [ 3 / { } |  ...X.o.8 8 8 8 ` ` 8 8 ` 8 8 |  ...X.o.",
"O.* T O : $ +.7 ] @.#.U $.%.%.%.%.8 8 8 8 9 9 8 8 8 8 U $.U &.*.",
"=.k -.;.:.>.v ,.<.9 9 9 9 9 8 %.1.8 2.8 8 8 9 9 9 8 3.4.5.a 2 > ",
"6.k [ X 7.8.9.9 9 9 8 8 8 8 8 %.%.8 2.0.2.8 8 9 9 #.' 5.q.w.2 e.",
"r.u O x t.y.9 9 8 8 8 8 8 8 8 1.%.%.8 2.2.8 8 8 9 u.Y i.p./ *.  ",
"a.s.u.d.  f.9 8 8 g.h.j.| 1.1.%.%.%.1.8 0.2.8 8 8 g.h.j.| k.l.z.",
"x.x.s a f.f.c.8 v.6.d.b.n.1.%.%.%.%.1.8 8 2.0.2.8 9 d.b.n.m.M.N.",
"x.x.x.f.f.c.c.* ( 3 B d.B.! %.%.%.%.%.1.8 t t 8 8 8 9 d.B.! : d ",
"V.9 9 9 c.= C.Z.A.S.] ; 6.D.%.%.%.1.1.1.1.t j 1.A.8 8 9 6.D.5 ] ",
"  8 9 9 9 8 @ # $ % & * = - ; 1.1.1.1.1.1.j 1.# $ % 8 8 9 9 9 @ ",
"$ , 8 8 8 8 3 4 5 6 7 y u 0 t F.x.x.x.x.x.x.3 4 5 6 7 y 8 8 8 9 ",
"i ; 8 8 x.G.f p 0 g y H.t t t F.1.1.1.1.1.1.t p 0 g y H.6 9 9 8 ",
"z x c x.J.G.n m M N > t t t t F.%.%.%.%.1.1.t t t N > B V 9 8 Z ",
"o > A G.J.J.G.F G H t t t t F.F.%.%.%.%.1.F.t t t t t 0 K 8 Z P ",
"I U F Y G.J.G.R E t t t t F.F.F.%.%.%.1.F.F.t t t t t t d Q 7 ! ",
"~ h ^ / 2 G.J.G.6 t t t t F.F.F.%.%.1.1.F.F.F.t t t t t t _ l ' ",
"N > o 6 Y ] G.J.J.t t t F.F.F.F.F.%.1.6 Y F.F.t t t t F.F...X.o.",
"O.* T O : $ +.G.J.G.F.F.F.F.F.F.$ %.1.O : $ F.F.F.t F.F.F.U &.*.",
"=.k -.;.:.>.v ,.G.J.J.G.F.F.F.K.) %.1.;.:.>.1.1.1.%.1.1.1.a 2 > ",
"6.k [ X 7.8.9.%.%.1.1.J.G.F.2 e.O.V.%.%.7.8.1.1.%.%.1.1.1.w.2 e.",
"r.u O x t.y.L.%.%.1.1.1.1./ *.  r.V O x t.y.1.1.%.%.1.i.p./ *.  ",
"a.s.u.d.  V %.%.1.1.1.1.| k.l.z.N g u.d.  %.%.%.%.1.h.j.| k.l.z.",
"- V s a P.b %.%.1.1.1.b.n.m.M.N.- k s a P.%.%.%.1.6.d.b.n.m.M.N.",
"p   a c M %.%.1.1.1.V d.B.! : d Y 5.I.c M %.1.1.1.3 V d.B.! : d ",
"@   ;.%.%.%.1.1.1.S.U ; 6.U.F - V.s 2 $ w.1.1.1.1.1.U ; 6.U.F 6."
};
