/* XPM */
static char *_639065570846[] = {
/* columns rows colors chars-per-pixel */
"32 32 82 1 ",
"  c #547B3A",
". c #648A42",
"X c #5F8640",
"o c #565C4A",
"O c #5D624E",
"+ c #010101",
"@ c #4B503F",
"# c #577F3C",
"$ c #5C833E",
"% c #618841",
"& c #595F4B",
"* c #626853",
"= c #527939",
"- c #8B907E",
"; c #B6B9B0",
": c #5F6551",
"> c #4F5342",
", c #5A813D",
"< c #7C836C",
"1 c #939987",
"2 c #535846",
"3 c #4D5141",
"4 c #567D3C",
"5 c #5E843F",
"6 c #4E7436",
"7 c #797F68",
"8 c #878C79",
"9 c #A1A597",
"0 c #9B9F90",
"q c #6B725C",
"w c #646B55",
"e c #747A65",
"r c #525644",
"t c #668D44",
"y c #666C57",
"u c #6E755F",
"i c #545A47",
"p c #466630",
"a c #7F8571",
"s c #AAAEA2",
"d c #6B9146",
"f c #9EA294",
"g c #415D2B",
"h c #5C7D3D",
"j c #828872",
"k c #848978",
"l c #395328",
"z c #484F37",
"x c #686E5A",
"c c #727862",
"v c #AFB2A8",
"b c #909484",
"n c #797E6B",
"m c #40562E",
"M c #465F30",
"N c #64754F",
"B c #989C8B",
"V c #476D33",
"C c #090908",
"Z c #344C25",
"A c #3F4334",
"S c #3F4D31",
"D c #5F7F41",
"F c #12130D",
"G c #4A563B",
"H c #A4A89B",
"J c #576E3F",
"K c #678250",
"L c #454E3E",
"P c #2F3224",
"I c #7E8173",
"U c #6B7B57",
"Y c #1A1D15",
"T c #536244",
"R c #BEC1B9",
"E c #67874A",
"W c #2F4521",
"Q c #4D5B3F",
"! c #5E7742",
"~ c #688244",
"^ c #74865D",
"/ c #444B38",
/* pixels */
"5 $X ##$4=# h~NTTTD. ##$4=# ,X#%",
"V,  =%t,5X%hUw:a1e&LJ%t,5X%4.  $",
"X.5.td..t%dNn-9;;1<oz~..t%d5#=$ ",
"%4,= ,XX$ %*1v;;s18w@@hDh #464.,",
" # =##$=6JQcBfBkne7*3rGLG=.6$. $",
"#$.dd,hKNo3u8beny>irO<7:iM$t.Xt$",
"%V,=X$^00-ewa-b91*@>e8jwOzl =$#.",
" $5.,E9RRs0<cb01172o78uOoAWlppV$",
"#dX%$U0;v9bwxsssHko&8c:wi@Spgp.$",
"#$=6JQcbeu7o<;;;9aOie:*x2@ASSlp5",
"#% !rx77yyc&a0vH1eOiy:w*@>3>@ZZ6",
"4X%U1f87B1j:jjB87*o>rO&3&O2y>zgp",
"ttEBv9k-s9<Ouc<7&&r@@>3oqo&O>GWp",
"4.K9;f89s-:oiOxw>i>@@3&qq&OqxrZg",
"%XUH;8-;9uu1k&ow&y&@@@>o*oOq*&Sp",
"% 7H0<fsBw9R;0-sfB7O2qx*23Oy&ozg",
"5 <ja<9-8j;Rv0f;;sk&ek-<q>3&22rm",
"V!juw8fayav;91v;;v-288-aq@33>i2l",
"XKN@*00:*<kb7<9v0ac>u<<x2>i2>22l",
"%DJ/e1-iq7j*:OuucwOo**y&r>:*3@Qm",
" # peIuOj0scOqH1<o2i*7yrr>O:@mlg",
"#$.dNO&aH;9e9-o3>@a::7urO2r&@SMp",
"%V,=Dmo0;san->F++C/*xy*&:&L2Lmlh",
" $5.#MO00by:AF+++++Afa:Oo2z>QWZ$",
"#dX%$=:1-qaqC++++++C3x&oG@zMmgh$",
"#$=6# NIekf3C+++++++F:y@zmMgg6 X",
"#% $6.~NIfnA++++CFYFP--OzlgM6=6,",
"4X%.ddXJu-yP++CFYPoOLa8OQgZV,d% ",
"tt%%4  Dwq:Y+YA>:n8no*qiSZl6 ,V$",
"4.5= 5 VDTrPPo*ekkknOo@Gph .h65,",
"%54XX%#X%#D!^<-bb11kjUJX%4%.t%t.",
"%=$546#=4#X,6XKK^KEE46#=4#X,6$,#"
};
