/* XPM */
static char *_639065607211[] = {
/* columns rows colors chars-per-pixel */
"32 32 134 2 ",
"   c #547C3A",
".  c #5D843F",
"X  c #5F8640",
"o  c #58813D",
"O  c #618841",
"+  c #5C833E",
"@  c #5E853F",
"#  c #628941",
"$  c #5A823E",
"%  c #567E3C",
"&  c #547A39",
"*  c #648B43",
"=  c #638A42",
"-  c #527A39",
";  c #577E3C",
":  c #557D3A",
">  c #5A813E",
",  c #5A813D",
"<  c #577F3D",
"1  c #507838",
"2  c #5F8740",
"3  c #658D43",
"4  c #678E45",
"5  c #517536",
"6  c #6A9146",
"7  c #688F45",
"8  c #4E7537",
"9  c #608741",
"0  c #567838",
"q  c #456A31",
"w  c #4B7235",
"e  c #5F8443",
"r  c #547738",
"t  c #4C6F34",
"y  c #557B39",
"u  c #E2E7CD",
"i  c #8B5A37",
"p  c #DBDFC3",
"a  c #AF773D",
"s  c #835435",
"d  c #487034",
"f  c #527336",
"g  c #96643B",
"h  c #DFE3CA",
"j  c #6C9046",
"k  c #6D9347",
"l  c #577B3B",
"z  c #8F5D37",
"x  c #707A3E",
"c  c #C4B99D",
"v  c #C8C4A5",
"b  c #829967",
"n  c #859F85",
"m  c #726238",
"M  c #D3D8B7",
"N  c #787D42",
"B  c #5E6F37",
"V  c #967D3F",
"C  c #8F6649",
"Z  c #7D5034",
"A  c #869EC6",
"S  c #744C35",
"D  c #D8DFC0",
"F  c #77763F",
"G  c #AE885B",
"H  c #BDB093",
"J  c #90723C",
"K  c #94AA75",
"L  c #E5EAD2",
"P  c #81723D",
"I  c #A06639",
"U  c #946D50",
"Y  c #5E7B39",
"T  c #7A923C",
"R  c #A1B589",
"E  c #BBA785",
"W  c #97A9C4",
"Q  c #97ABC6",
"!  c #9E7F64",
"~  c #9BA13E",
"^  c #6A843E",
"/  c #D3B58A",
"(  c #5A7E3C",
")  c #A5793E",
"_  c #88783D",
"`  c #BBC8A1",
"'  c #826C39",
"]  c #6A8946",
"[  c #986949",
"{  c #70553A",
"}  c #888541",
"|  c #AFB78C",
" . c #C8A67E",
".. c #9E9F73",
"X. c #7A824D",
"o. c #9C8E7C",
"O. c #809BA1",
"+. c #8D8FA0",
"@. c #899B3C",
"#. c #A56F3F",
"$. c #A69C6B",
"%. c #C7D0AD",
"&. c #91A6C4",
"*. c #729356",
"=. c #8D7C4A",
"-. c #788440",
";. c #ACA57F",
":. c #8CA372",
">. c #4C6934",
",. c #9E733D",
"<. c #6B754A",
"1. c #80899E",
"2. c #97773E",
"3. c #815B45",
"4. c #5A7849",
"5. c #A98C71",
"6. c #626A3F",
"7. c #9C6D4A",
"8. c #A27752",
"9. c #62493F",
"0. c #624438",
"q. c #6D8C85",
"w. c #6A8E6F",
"e. c #A18D85",
"r. c #AC8F3A",
"t. c #9BAFBC",
"y. c #828840",
"u. c #899485",
"i. c #D6BE6F",
"p. c #C0CBC9",
"a. c #B4605A",
"s. c #933842",
"d. c #9EA98F",
"f. c #5D863D",
/* pixels */
". : + X y < < + % - <   , 2 < # .   + X y < < + % - <   , 2 < O ",
"d , &   - O 3 $ . X O % = -   . d , &   - O 3 $ . X O % = -   + ",
"2 * @ = 4 j * = 4 O 6 . ; - $   9 * @ = 4 j * = 4 O 6 . ; - $   ",
"# % , & & , @ @ +   % % 8 % = $ = % , & & , @ @ +   % % 8 % = > ",
"  ; y r < < + 1 w r = f + =   .   % y r < < + 1 w r = f + =   + ",
"o + * j 6 , : : . X @ 4 * X 3 @ o + * j 6 , : : . X @ 4 * X 3 + ",
"9 q $ - 2 + @ . 9 : & + 1 > B x x >.$ - 2 + @ . 9 : & + 1 $ < * ",
"  + . * o O O $ d 5 5 1 - m z z i m . * o O O $ d 5 5 1 - q q + ",
"< 6 X # + 9 X o 3 o o 7 o F 8.G 7.i x # + 9 X o 3 o o 7 o 9 7 + ",
"; $ - 8 ; & 1 f 0 4 k O @ 6. . .U z ' 5 ; & 1 f 0 4 k O @ -   X ",
"; O : . w = . 0 o < O 3 @ m { 9.S i i x w = . 0 o < O 3 @ - 8 > ",
"% X # = k 7 X : 7 * t - $ X.S 0.s 5.U N k 7 X : 7 * t - $ 7 O   ",
"3 7 # O %   & >   t 5 5 ] ` ! s C v p R o   & >   t 5 5 y $ t . ",
"% = @ 1 & . y q > # ; * :.L c C v L u h R 9 y q > # ; * ( 8 . , ",
"O @ % @ X 9 < 2 O % # = K u h D u u h h c b < 2 O % # = 3 # 4 * ",
"# - $ .   w   r l o 2 > b D p h D D p H H | e r l X O > w $ o : ",
". : + X y < < + % - < e ` p h u h p %.%.D D b + ^ ~ T   , 2 < O ",
"d , &   - O 3 $ . X O N v M u L p v *.R p / G ^ P r.@.% = -   + ",
"2 * @ = 4 j * = 4 O 6 P G b H c E $.# *...#.a g s.F 6 . ; - $   ",
"# % , & & , @ @ +   % ' g ;.H E v D K l Y J G a.m   % % 8 % = > ",
"  ; y r < < + 1 w r = =.E c U C ! M M K @.~ / / l r = f + =   + ",
"o + * j 6 , : : . X @ | c C Z Z s ! M M K d.i.$.e X @ 4 * X 3 + ",
"9 q $ - 2 + @ . 9 : & ..[ z s S s s o.p.&.O.~ T 9 : & + 1 $ < * ",
"  + . * o O O $ d 5 B z I g i Z s [ +.&.Q b T $ d 5 5 1 - q q + ",
"< 6 X # + 9 X o 3 > P I I g Z S 3.+.A W u.= X o 3 o o 7 o 9 7 + ",
"; $ - 8 ; & 1 f 0 ] g g i i { <.1.A W e.s B 1 f 0 4 k O @ -   X ",
"; O : . w = . 0 o < F z i m 4.O.A Q o.#.g x . 0 o < O 3 @ - 8 > ",
"% X # = k 7 X : 7 * B J a y.w.A W n ] 2.a } X : 7 * t - $ 7 O   ",
"3 7 # O %   & >   t 0 J a N q.Q n 6 # _ a ) Y >   t 5 5 y $ t . ",
"% = @ 1 & . y q > ^ J a a X.t.n > = x ,.a ) Y q > # ; * ( 8 . , ",
"O @ % @ X O < 2 O N V V } n n 4 O X _ V V -.< 2 O % # = 3 # 4 * ",
"O - + @ % 8 ; 0 l o 2 > w + , : = - + @ % 8 ; 0 l o 2 > w + > < "
};
