/* XPM */
static char *_639065616132[] = {
/* columns rows colors chars-per-pixel */
"32 32 132 2 ",
"   c #5A813D",
".  c #537C3A",
"X  c #5C823E",
"o  c #628A42",
"O  c #547A39",
"+  c #618841",
"@  c #567E3C",
"#  c #5B833E",
"$  c #5D843F",
"%  c #5E853F",
"&  c #577F3C",
"*  c #5F8641",
"=  c #648A42",
"-  c #5F8640",
";  c #577C3A",
":  c #628941",
">  c #527A39",
",  c #547738",
"<  c #658C43",
"1  c #58813D",
"2  c #6A9045",
"3  c #557D3A",
"4  c #4F7637",
"5  c #6D9146",
"6  c #4C7336",
"7  c #678F44",
"8  c #678D43",
"9  c #4F7938",
"0  c #58803D",
"q  c #527436",
"w  c #557E3B",
"e  c #537B39",
"r  c #456931",
"t  c #567838",
"y  c #8C5A37",
"u  c #678E45",
"i  c #497135",
"p  c #DFE3C9",
"a  c #AF773D",
"s  c #95A9C5",
"d  c #E2E7CD",
"f  c #DAE0C2",
"g  c #845335",
"h  c #9C653A",
"j  c #D8DBBF",
"k  c #456E34",
"l  c #517436",
"z  c #4A6F34",
"x  c #5F833E",
"c  c #5B7C3C",
"v  c #977D3F",
"b  c #925E38",
"n  c #D0D7B4",
"m  c #849C87",
"M  c #648B43",
"N  c #C4B99D",
"B  c #777F42",
"V  c #7D5034",
"C  c #8F6649",
"Z  c #BDB093",
"A  c #86743D",
"S  c #90A773",
"D  c #A08162",
"F  c #737B3E",
"G  c #744C35",
"H  c #78743D",
"J  c #869EC6",
"K  c #4E6E34",
"L  c #BBA785",
"P  c #6D7A40",
"I  c #E5EAD2",
"U  c #91663B",
"Y  c #946D50",
"T  c #996B49",
"R  c #806D3A",
"E  c #C5C9A4",
"W  c #7E953D",
"Q  c #68733E",
"!  c #705E36",
"~  c #73905C",
"^  c #835C3D",
"/  c #92743D",
"(  c #7F949F",
")  c #80823F",
"_  c #9D9185",
"`  c #AC9169",
"'  c #6F833C",
"]  c #D3B58A",
"[  c #949D6D",
"{  c #A6AB83",
"}  c #A4783D",
"|  c #B2BB8E",
" . c #C7BDA5",
".. c #CCC2A9",
"X. c #738E45",
"o. c #819C6A",
"O. c #A7BB8C",
"+. c #C8A67E",
"@. c #838F59",
"#. c #939C37",
"$. c #67884E",
"%. c #AF8358",
"&. c #8D8FA0",
"*. c #75643A",
"=. c #627C39",
"-. c #9FA341",
";. c #9DA775",
":. c #BFCCA2",
">. c #8F804C",
",. c #586535",
"<. c #8C7F40",
"1. c #BAC6A0",
"2. c #9F733E",
"3. c #71503F",
"4. c #A27752",
"5. c #626A3F",
"6. c #62493F",
"7. c #624438",
"8. c #9CAFBD",
"9. c #AE903C",
"0. c #688D6F",
"q. c #7B9576",
"w. c #A56C3E",
"e. c #C0CBC9",
"r. c #9F8774",
"t. c #A7A56B",
"y. c #933841",
"u. c #D7BE71",
"i. c #9FA990",
"p. c #A57340",
"a. c #B3605A",
"s. c #538242",
/* pixels */
"$ 3 # - O & 0 # @ > & e   - & : $ . # - O & 0 # @ > & e   - & + ",
"k X O . > + <   $ * + @ = e . $ k   O . > + <   $ * + @ = e . # ",
"- M % : u 5 M = 8 + 2 $ @ > X 3 * M % : u 5 M = 8 + 2 $ @ > X 3 ",
": w   O O   % % X . & @ 6 @ o   o w   O O   % % X . & @ 6 @ o   ",
". @ e , 0 & # 9 6 , = q X o . $ . @ e , 0 & # 9 6 , = q X o . # ",
"0 # M 5 2   3 w $ - % u M * 8 % 0 # M 5 2   3 w $ - % u M * 8 $ ",
"* k   > * # % $ * 3 O # 9 X c P Q ,.  > * # % $ * 3 O # 9 X & = ",
". # $ M 1 + +   i q l 4 > r ! y b b H M 1 + +   i q l 4 > r r X ",
"& 2 - : # - * 1 < 1 0 7 0 F ^ T %.4.H : # - * 1 < 1 0 7 0 + 2 X ",
"@ X e 4 & O 9 q t 7 5 + x R b Y +.+.5.4 & O 9 q t 7 5 + % > . - ",
"@ + 3 $ 6 o $ t 1 & + < F y y G 6.3.! $ 6 o $ t 1 & + < % > 4   ",
"@ - : o 5 2 - w 7 M K > P Y ` g 7.G B o 5 2 - w 7 M K >   2 + e ",
"< 7 : + @ . O   . z 4 , { j ..C g D 1.~ @ . O   . z 4 l O # z $ ",
"@ : % 9 O x O r   : X O.p d I  .C N I o.O x O r   : @ = c 4 x   ",
"+ % w x - + & * + & @.N p p d d j p d S - + & * + & : o 8 : u M ",
": > X $ e 6 x , ; o | Z Z p f j d f j S e 6 3 , ; 1 -   i   1 w ",
"$ 3 # - O W #.8 @ o.f f E n f p d p f :.* & 0 # @ > & e   - & + ",
"k X O . > W 9.R ' ` ] p O.~ E f I d n E B + <   $ * + @ = e . # ",
"- M % : u 5 H y.U a p.;.$.c ` L N Z [ D A 5 M = 8 + 2 $ @ > X 3 ",
": w   O O   % *.a.%.A =.4 S j  .L Z { h R   % % X . & @ 6 @ o   ",
". @ e , 0 & # X ] ] -.#.;.n n D C Y N L >.& # 9 6 , = q X o . # ",
"0 # M 5 2   3 @ t.u.i.S n j D g V V C N |   3 w $ - % u M * 8 $ ",
"* k   > * # % $ W -.( s e.r.g g G g y T [ # % $ * 3 O # 9 X & = ",
". # $ M 1 + +   i ' ~ s s &.T g V y h h U P +   i q l 4 > r r X ",
"& 2 - : # - * 1 < 1 X m s J &.^ G V b h h A * 1 < 1 0 7 0 + 2 X ",
"@ X e 4 & O 9 q t 7 ' ^ _ s J ( Q ! y y h U t q t 7 5 + % > . - ",
"@ + 3 $ 6 o $ t 1 & F b w._ s J ( $.*.y y F $ t 1 & + < % > 4   ",
"@ - : o 5 2 - w 7 M H a / X.m s J 0.) a v X.- w 7 M K >   2 + e ",
"< 7 : + @ . O   . q } a A # 6 m s m ) a / c O   . z 4 l O # z $ ",
"@ : % 9 O x O r   = } a 2.Q x X m 8.@.a a / =.r   : @ = c 4 x   ",
"+ % w % - + & * + @ B v v <.2 M M m q.) v v B * + @ : o 8 : u M ",
"+ e # % w 4 @ t ; 0 -   6 #   w : > # % w 4 @ t ; 0 -   6 #   & "
};
