/* XPM */
static char *_639065586553[] = {
/* columns rows colors chars-per-pixel */
"32 32 61 1 ",
"  c #639CFF",
". c #999D95",
"X c #555D4F",
"o c #626D5E",
"O c #8D9288",
"+ c #778072",
"@ c #868E82",
"# c #4E5549",
"$ c #4F564A",
"% c #50574C",
"& c #7B8476",
"* c #899085",
"= c #B0B2AE",
"- c #585E52",
"; c #838B7F",
": c #A2A59F",
"> c #52594D",
", c #C1C1BF",
"< c #AAADA7",
"1 c #949A91",
"2 c #ACAFA9",
"3 c #5E6759",
"4 c #5B6155",
"5 c #7F887A",
"6 c #677463",
"7 c #8E948A",
"8 c #737B6D",
"9 c #A4A7A2",
"0 c #5D6457",
"q c #91978D",
"w c #BBBCBA",
"e c #9CA099",
"r c #A6AAA4",
"t c #666D61",
"y c #AEB1AC",
"u c #657260",
"i c #62695D",
"p c #697665",
"a c #B3B5B1",
"s c #6D796A",
"d c #B5B7B3",
"f c #BEBFBD",
"g c #6398F2",
"h c #697064",
"j c #6C7567",
"k c #6396EC",
"l c #7E857B",
"z c #B7B9B5",
"x c #6191DF",
"c c #5A7792",
"v c #6385B5",
"b c #6A8393",
"n c #505F67",
"m c #4D6276",
"M c #455645",
"N c #516782",
"B c #618DD1",
"V c #758A9B",
"C c #82919E",
"Z c #4D5A58",
"A c #6A7E7C",
/* pixels */
"                                ",
"                                ",
"             kvvB               ",
"            kC9@3Nx             ",
"           kCd,zOXMmx           ",
"          gC:,,f9t%#nk          ",
"         gV:w,,w:h%##nk         ",
"         v1d,,,d9j%$##c         ",
"      xbc7yf,fw=*-$$$#Mx        ",
"     Bs6;rw,fwayqX$%$##nccNB    ",
"    kAsl:zfwdd=rl-%%$$$-s+0%v   ",
"   gb8+1=zway=2.h4%>#%Xj@;jXZx  ",
"  gV&l1<a=a2r<9Oi0%>%-j;O*&tXmg ",
" gV5;q<y<r<::<.+04>>48@O7O;s3%Ng",
"gbl*79<9e.e.9:qoX-XX8*O77O*5pX$m",
"b;@7e.1qO7q.:.54%-4-&@OOOOO@+o>M",
"s;*.1@;5@@711.jX#X3h+&5@*OO@&po>",
"+5O7;l&&55*q.16%#%3j8s8+;*O*+pu3",
"&@*;++++5@7.eOi##$0h8pps&5;@8uoo",
"@*;&+++5@7.e1*0##$4tj6668+&;+6oo",
"*5&&+&;Oq.:...0#%-4u6oopp8s+86u3",
"@55&&*7q.:ee9:t$X43tt30u66pp66uo",
"@@5;*O1::9:ryal$$40ito-X3336uuoo",
"&5;O7.<<2<rydw<4$$-0iti>%X>3ooo3",
"&;Oqe2yyy<2dw,f+>#$>0tti>$$$%434",
"@Oq:2y=y<<2z,,,.4#$$$0it3$$$#%XX",
"71:2===y<ra,,,,a8%###%4ii-$$%#$$",
".r2y==y<ryfwwffw*0$###$-04%%X%$#",
"r<ryyr.19aa<adwdeh-#####>>>>-3X>",
"eqe91&;11r22a=z<9+i%#######>4oo-",
"5*@so8@@.<922:<.e*8-$#>$####%o6u",
"&8o04t&1r:9<:qe@1q+hX%X-$####Xup"
};
